<?xml version="1.0" standalone="no"?>
<!DOCTYPE svg PUBLIC "-//W3C//DTD SVG 20010904//EN"
 "http://www.w3.org/TR/2001/REC-SVG-20010904/DTD/svg10.dtd">
<svg version="1.0" xmlns="http://www.w3.org/2000/svg"
 width="512.000000pt" height="512.000000pt" viewBox="0 0 512.000000 512.000000"
 preserveAspectRatio="xMidYMid meet">

<g transform="translate(0.000000,512.000000) scale(0.100000,-0.100000)"
fill="#000000" stroke="none">
<path d="M2522 4510 c-80 -36 -103 -142 -45 -210 31 -37 65 -47 193 -54 523
-31 995 -288 1300 -709 405 -558 437 -1294 82 -1892 -93 -157 -271 -358 -417
-471 -251 -195 -557 -318 -877 -353 -700 -77 -1394 303 -1713 939 -94 186
-145 359 -170 570 -24 204 -16 378 27 565 31 134 32 165 9 203 -57 90 -180 94
-236 8 -21 -31 -60 -200 -76 -326 -18 -134 -15 -412 5 -540 88 -565 396 -1053
861 -1365 506 -340 1129 -431 1710 -250 731 227 1259 845 1381 1615 22 142 22
438 0 579 -70 443 -259 817 -570 1126 -338 337 -772 536 -1250 575 -165 13
-163 13 -214 -10z"/>
<path d="M2849 2684 l-476 -475 -203 211 c-113 117 -217 218 -232 226 -54 28
-113 11 -162 -46 -32 -39 -35 -101 -7 -145 11 -16 145 -157 298 -313 242 -246
282 -283 308 -282 26 0 102 73 578 548 575 574 580 580 563 648 -4 15 -24 45
-45 66 -35 35 -44 38 -92 38 l-54 0 -476 -476z"/>
</g>
</svg>
